<svg width="477" height="222" viewBox="0 0 477 222" fill="none" xmlns="http://www.w3.org/2000/svg">
<path d="M117.119 93.9375H90.8069V76.3125C90.8069 71.1875 90.5152 68 89.9319 66.75C89.3902 65.4583 88.1611 64.8125 86.2444 64.8125C84.0777 64.8125 82.7027 65.5833 82.1194 67.125C81.5361 68.6667 81.2444 72 81.2444 77.125V124.125C81.2444 129.042 81.5361 132.25 82.1194 133.75C82.7027 135.25 84.0152 136 86.0569 136C88.0152 136 89.2861 135.25 89.8694 133.75C90.4944 132.25 90.8069 128.729 90.8069 123.188V110.5H117.119V114.438C117.119 124.896 116.369 132.312 114.869 136.688C113.411 141.062 110.14 144.896 105.057 148.188C100.015 151.479 93.7861 153.125 86.3694 153.125C78.6611 153.125 72.3069 151.729 67.3069 148.938C62.3069 146.146 58.9944 142.292 57.3694 137.375C55.7444 132.417 54.9319 124.979 54.9319 115.062V85.5C54.9319 78.2083 55.1819 72.75 55.6819 69.125C56.1819 65.4583 57.6611 61.9375 60.1194 58.5625C62.6194 55.1875 66.0569 52.5417 70.4319 50.625C74.8486 48.6667 79.9111 47.6875 85.6194 47.6875C93.3694 47.6875 99.7652 49.1875 104.807 52.1875C109.849 55.1875 113.161 58.9375 114.744 63.4375C116.328 67.8958 117.119 74.8542 117.119 84.3125V93.9375ZM148.369 100.188H124.682V94.625C124.682 88.2083 125.411 83.2708 126.869 79.8125C128.369 76.3125 131.349 73.2292 135.807 70.5625C140.265 67.8958 146.057 66.5625 153.182 66.5625C161.724 66.5625 168.161 68.0833 172.494 71.125C176.828 74.125 179.432 77.8333 180.307 82.25C181.182 86.625 181.619 95.6667 181.619 109.375V151H157.057V143.625C155.515 146.583 153.515 148.812 151.057 150.312C148.64 151.771 145.744 152.5 142.369 152.5C137.953 152.5 133.89 151.271 130.182 148.812C126.515 146.312 124.682 140.875 124.682 132.5V125.688C124.682 119.479 125.661 115.25 127.619 113C129.578 110.75 134.432 108.125 142.182 105.125C150.474 101.875 154.911 99.6875 155.494 98.5625C156.078 97.4375 156.369 95.1458 156.369 91.6875C156.369 87.3542 156.036 84.5417 155.369 83.25C154.744 81.9167 153.682 81.25 152.182 81.25C150.474 81.25 149.411 81.8125 148.994 82.9375C148.578 84.0208 148.369 86.875 148.369 91.5V100.188ZM156.369 111.562C152.328 114.521 149.974 117 149.307 119C148.682 121 148.369 123.875 148.369 127.625C148.369 131.917 148.64 134.688 149.182 135.938C149.765 137.188 150.89 137.812 152.557 137.812C154.14 137.812 155.161 137.333 155.619 136.375C156.119 135.375 156.369 132.792 156.369 128.625V111.562ZM215.994 68.0625L215.557 75.6875C217.39 72.6458 219.619 70.375 222.244 68.875C224.911 67.3333 227.974 66.5625 231.432 66.5625C235.765 66.5625 239.307 67.5833 242.057 69.625C244.807 71.6667 246.578 74.25 247.369 77.375C248.161 80.4583 248.557 85.625 248.557 92.875V151H223.307V93.5625C223.307 87.8542 223.119 84.375 222.744 83.125C222.369 81.875 221.328 81.25 219.619 81.25C217.828 81.25 216.703 81.9792 216.244 83.4375C215.786 84.8542 215.557 88.6875 215.557 94.9375V151H190.307V68.0625H215.994ZM314.744 49.8125V151H289.494V145C287.078 147.5 284.536 149.375 281.869 150.625C279.203 151.875 276.411 152.5 273.494 152.5C269.578 152.5 266.182 151.479 263.307 149.438C260.432 147.354 258.578 144.958 257.744 142.25C256.953 139.542 256.557 135.125 256.557 129V90.1875C256.557 83.8125 256.953 79.2917 257.744 76.625C258.578 73.9583 260.453 71.625 263.369 69.625C266.286 67.5833 269.765 66.5625 273.807 66.5625C276.932 66.5625 279.786 67.125 282.369 68.25C284.994 69.375 287.369 71.0625 289.494 73.3125V49.8125H314.744ZM289.494 88.9375C289.494 85.8958 289.224 83.8542 288.682 82.8125C288.182 81.7708 287.161 81.25 285.619 81.25C284.119 81.25 283.099 81.7292 282.557 82.6875C282.057 83.6042 281.807 85.6875 281.807 88.9375V129.562C281.807 132.938 282.057 135.167 282.557 136.25C283.057 137.292 284.015 137.812 285.432 137.812C287.057 137.812 288.14 137.229 288.682 136.062C289.224 134.854 289.494 131.938 289.494 127.312V88.9375ZM349.057 68.0625L348.057 78.9375C351.724 71.1458 357.036 67.0208 363.994 66.5625V95.75C359.369 95.75 355.974 96.375 353.807 97.625C351.64 98.875 350.307 100.625 349.807 102.875C349.307 105.083 349.057 110.208 349.057 118.25V151H323.807V68.0625H349.057ZM392.244 100.188H368.557V94.625C368.557 88.2083 369.286 83.2708 370.744 79.8125C372.244 76.3125 375.224 73.2292 379.682 70.5625C384.14 67.8958 389.932 66.5625 397.057 66.5625C405.599 66.5625 412.036 68.0833 416.369 71.125C420.703 74.125 423.307 77.8333 424.182 82.25C425.057 86.625 425.494 95.6667 425.494 109.375V151H400.932V143.625C399.39 146.583 397.39 148.812 394.932 150.312C392.515 151.771 389.619 152.5 386.244 152.5C381.828 152.5 377.765 151.271 374.057 148.812C370.39 146.312 368.557 140.875 368.557 132.5V125.688C368.557 119.479 369.536 115.25 371.494 113C373.453 110.75 378.307 108.125 386.057 105.125C394.349 101.875 398.786 99.6875 399.369 98.5625C399.953 97.4375 400.244 95.1458 400.244 91.6875C400.244 87.3542 399.911 84.5417 399.244 83.25C398.619 81.9167 397.557 81.25 396.057 81.25C394.349 81.25 393.286 81.8125 392.869 82.9375C392.453 84.0208 392.244 86.875 392.244 91.5V100.188ZM400.244 111.562C396.203 114.521 393.849 117 393.182 119C392.557 121 392.244 123.875 392.244 127.625C392.244 131.917 392.515 134.688 393.057 135.938C393.64 137.188 394.765 137.812 396.432 137.812C398.015 137.812 399.036 137.333 399.494 136.375C399.994 135.375 400.244 132.792 400.244 128.625V111.562Z" fill="white"/>
<path d="M3.13281 117.375V102.375C7.67448 102.333 11.0911 101 13.3828 98.375C15.6745 95.7083 16.8203 89.75 16.8203 80.5C16.8203 73.4583 17.0703 68.25 17.5703 64.875C18.112 61.4583 19.3828 58.6042 21.3828 56.3125C23.3828 54.0208 25.9661 52.375 29.1328 51.375C32.2995 50.3333 36.7786 49.8125 42.5703 49.8125H45.8828V64.75C39.8411 64.75 36.2161 65.375 35.0078 66.625C33.8411 67.875 33.2161 70.3125 33.1328 73.9375C32.8828 83.9375 32.5495 90.4375 32.1328 93.4375C31.7578 96.4375 30.8411 99.3125 29.3828 102.062C27.9661 104.771 25.2995 107.375 21.3828 109.875C25.0911 112.125 27.7786 114.812 29.4453 117.938C31.1536 121.062 32.1536 125.562 32.4453 131.438L33.3828 149.625C33.7578 151.375 34.6536 152.688 36.0703 153.562C37.487 154.479 40.737 154.938 45.8203 154.938V169.938H42.5703C35.9036 169.938 30.7578 169.167 27.1328 167.625C23.5078 166.125 20.8828 163.646 19.2578 160.188C17.6328 156.729 16.8203 151.146 16.8203 143.438C16.8203 134.938 16.5286 129.5 15.9453 127.125C15.362 124.75 14.237 122.583 12.5703 120.625C10.9036 118.625 7.75781 117.542 3.13281 117.375Z" fill="#7BDBF9"/>
<path d="M472 117.375C467.458 117.417 464.042 118.771 461.75 121.438C459.458 124.104 458.312 130.021 458.312 139.188C458.312 146.271 458.062 151.5 457.562 154.875C457.062 158.292 455.812 161.146 453.812 163.438C451.812 165.729 449.229 167.375 446.062 168.375C442.896 169.417 438.417 169.938 432.625 169.938H429.312V154.938C435.104 154.938 438.646 154.333 439.938 153.125C441.271 151.917 441.979 149.458 442.062 145.75C442.312 135.083 442.688 128.25 443.188 125.25C443.729 122.208 444.771 119.375 446.312 116.75C447.896 114.125 450.375 111.833 453.75 109.875C450.167 107.542 447.667 105.25 446.25 103C444.833 100.75 443.875 98.3125 443.375 95.6875C442.875 93.0208 442.5 88.1042 442.25 80.9375C442 73.7292 441.708 69.6042 441.375 68.5625C441.042 67.5208 440.229 66.625 438.938 65.875C437.688 65.125 434.458 64.75 429.25 64.75V49.8125H432.562C439.229 49.8125 444.375 50.5833 448 52.125C451.625 53.625 454.25 56.1042 455.875 59.5625C457.5 63.0208 458.312 68.6042 458.312 76.3125C458.312 85.1458 458.625 90.7083 459.25 93C459.917 95.2917 461.062 97.3958 462.688 99.3125C464.354 101.188 467.458 102.208 472 102.375V117.375Z" fill="#7BDBF9"/>
</svg>
