<svg width="25" height="29" viewBox="0 0 25 29" fill="none" xmlns="http://www.w3.org/2000/svg">
<path d="M10.6812 4.68311H15.4227H24.7886V16.4783V28.2736C24.7886 28.2736 21.779 20.4341 20.1056 19.3759C18.5454 18.3892 15.3056 18.732 15.3056 18.732C15.3056 18.732 23.1496 9.36607 20.1056 9.36607C17.3624 9.36607 13.0812 9.36607 13.0812 9.36607H10.6812V4.68311Z" fill="#404040"/>
<rect x="0.788574" y="4.68311" width="4.56589" height="4.68297" fill="#404040"/>
<rect x="19.9888" width="4.68297" height="3.6293" fill="#404040"/>
<path d="M5.35449 0H10.0375V13.9026V21.366C10.0375 23.9417 17.8229 28.2734 17.8229 28.2734H11.4423H8.33988H6.75938H6.11547H5.35449V27.2527V26.5246V25.0685V22.1563V16.3318V0Z" fill="#404040"/>
</svg>
