<svg width="51" height="53" viewBox="0 0 51 53" fill="none" xmlns="http://www.w3.org/2000/svg">
<path d="M50.6504 33.2155L25.8478 8.41284C25.1241 8.47863 24.4004 8.6102 23.6768 8.80757L50.3215 35.4523C50.4531 34.6628 50.5846 33.9391 50.6504 33.2155Z" fill="#404040"/>
<path d="M44.2692 14.7945C42.2297 12.755 39.8613 11.176 37.2297 10.0576L49.0718 21.8997C47.8876 19.2023 46.3087 16.8339 44.2692 14.7945Z" fill="#404040"/>
<path d="M12.5585 46.439C14.598 48.4785 16.9664 50.0574 19.598 51.1758L7.75586 39.3337C8.94007 42.0311 10.519 44.3995 12.5585 46.439Z" fill="#404040"/>
<path d="M41.6377 48.6761L10.3219 17.3604C9.99297 17.8209 9.59823 18.3472 9.26929 18.8735L40.0587 49.663C40.6509 49.3998 41.1772 49.0709 41.6377 48.6761Z" fill="#404040"/>
<path d="M33.1508 52.4916L6.50606 25.8469C6.37448 26.5706 6.24291 27.2943 6.11133 28.018L30.9797 52.8864C31.7034 52.8206 32.4271 52.689 33.1508 52.4916Z" fill="#404040"/>
<path d="M47.4926 42.2943L16.7031 11.5049C16.1768 11.8338 15.6505 12.1628 15.1899 12.5575L46.5057 43.8733C46.8347 43.347 47.1636 42.8207 47.4926 42.2943Z" fill="#404040"/>
<path d="M45.1902 25.4523L20.3876 0.649658C19.6639 0.715448 18.9402 0.84702 18.2166 1.04439L44.7955 27.6891C44.9271 26.9654 45.0586 26.2417 45.1902 25.4523Z" fill="#FBFBFB"/>
<path d="M38.7428 7.0972C36.7034 5.05773 34.3349 3.47877 31.7034 2.36035L43.5455 14.2025C42.427 11.5051 40.7823 9.13667 38.7428 7.0972Z" fill="#FBFBFB"/>
<path d="M7.09804 38.7417C9.13751 40.7812 11.5059 42.3602 14.1375 43.4786L2.29541 31.6365C3.41383 34.3338 5.05857 36.7023 7.09804 38.7417Z" fill="#FBFBFB"/>
<path d="M36.1111 40.9786L4.79531 9.66284C4.46636 10.1234 4.07162 10.6497 3.74268 11.176L34.5321 41.9655C35.1242 41.7023 35.6506 41.3734 36.1111 40.9786Z" fill="#FBFBFB"/>
<path d="M27.6901 44.7944L1.04537 18.1497C0.913793 18.8733 0.782214 19.597 0.650635 20.3207L25.4533 45.1233C26.1769 45.0575 26.9664 44.9917 27.6901 44.7944Z" fill="#FBFBFB"/>
<path d="M42.0321 34.5971L11.2426 3.80762C10.7163 4.13656 10.19 4.46551 9.72949 4.86024L41.0453 36.176C41.3742 35.6497 41.7032 35.1234 42.0321 34.5971Z" fill="#FBFBFB"/>
</svg>
