<svg width="50" height="99" viewBox="0 0 50 99" fill="none" xmlns="http://www.w3.org/2000/svg">
<path d="M49.9999 30.6777C49.9999 29.576 49.0677 28.6438 47.966 28.6438C46.8643 28.6438 45.9321 29.576 45.9321 30.6777C45.9321 31.7794 46.8643 32.7116 47.966 32.7116C49.0677 32.7116 49.9999 31.7794 49.9999 30.6777Z" fill="#404040"/>
<path d="M49.9999 21.2712C49.9999 20.1695 49.0677 19.2373 47.966 19.2373C46.8643 19.2373 45.9321 20.1695 45.9321 21.2712C45.9321 22.3729 46.8643 23.3051 47.966 23.3051C49.0677 23.3898 49.9999 22.4576 49.9999 21.2712Z" fill="#404040"/>
<path d="M49.9999 11.9492C49.9999 10.8475 49.0677 9.91528 47.966 9.91528C46.8643 9.91528 45.9321 10.8475 45.9321 11.9492C45.9321 13.0509 46.8643 13.9831 47.966 13.9831C49.0677 13.9831 49.9999 13.0509 49.9999 11.9492Z" fill="#404040"/>
<path d="M40.2541 30.6777C40.2541 29.576 39.3219 28.6438 38.2202 28.6438C37.1185 28.6438 36.1863 29.576 36.1863 30.6777C36.1863 31.7794 37.1185 32.7116 38.2202 32.7116C39.3219 32.7116 40.2541 31.7794 40.2541 30.6777Z" fill="#404040"/>
<path d="M40.2541 21.2712C40.2541 20.1695 39.3219 19.2373 38.2202 19.2373C37.1185 19.2373 36.1863 20.1695 36.1863 21.2712C36.1863 22.3729 37.1185 23.3051 38.2202 23.3051C39.3219 23.3051 40.2541 22.4576 40.2541 21.2712Z" fill="#404040"/>
<path d="M40.2541 11.9492C40.2541 10.8475 39.3219 9.91528 38.2202 9.91528C37.1185 9.91528 36.1863 10.8475 36.1863 11.9492C36.1863 13.0509 37.1185 13.9831 38.2202 13.9831C39.3219 13.9831 40.2541 13.0509 40.2541 11.9492Z" fill="#404040"/>
<path d="M28.4746 32.7116C29.5979 32.7116 30.5085 31.801 30.5085 30.6777C30.5085 29.5544 29.5979 28.6438 28.4746 28.6438C27.3513 28.6438 26.4407 29.5544 26.4407 30.6777C26.4407 31.801 27.3513 32.7116 28.4746 32.7116Z" fill="#404040"/>
<path d="M28.4746 23.3051C29.5979 23.3051 30.5085 22.3945 30.5085 21.2712C30.5085 20.1479 29.5979 19.2373 28.4746 19.2373C27.3513 19.2373 26.4407 20.1479 26.4407 21.2712C26.4407 22.3945 27.3513 23.3051 28.4746 23.3051Z" fill="#404040"/>
<path d="M28.4746 13.9831C29.5979 13.9831 30.5085 13.0725 30.5085 11.9492C30.5085 10.8259 29.5979 9.91528 28.4746 9.91528C27.3513 9.91528 26.4407 10.8259 26.4407 11.9492C26.4407 13.0725 27.3513 13.9831 28.4746 13.9831Z" fill="#404040"/>
<path d="M20.8476 30.6777C20.8476 29.576 19.9154 28.6438 18.8137 28.6438C17.712 28.6438 16.7798 29.576 16.7798 30.6777C16.7798 31.7794 17.712 32.7116 18.8137 32.7116C19.9154 32.7116 20.8476 31.7794 20.8476 30.6777Z" fill="#404040"/>
<path d="M20.8476 21.2712C20.8476 20.1695 19.9154 19.2373 18.8137 19.2373C17.712 19.2373 16.7798 20.1695 16.7798 21.2712C16.7798 22.3729 17.712 23.3051 18.8137 23.3051C19.9154 23.3051 20.8476 22.4576 20.8476 21.2712Z" fill="#404040"/>
<path d="M20.8476 11.9492C20.8476 10.8475 19.9154 9.91528 18.8137 9.91528C17.712 9.91528 16.7798 10.8475 16.7798 11.9492C16.7798 13.0509 17.712 13.9831 18.8137 13.9831C19.9154 13.9831 20.8476 13.0509 20.8476 11.9492Z" fill="#404040"/>
<path d="M11.1017 30.6777C11.1017 29.576 10.1695 28.6438 9.06783 28.6438C7.96613 28.6438 7.03394 29.576 7.03394 30.6777C7.03394 31.7794 7.96613 32.7116 9.06783 32.7116C10.1695 32.7116 11.1017 31.7794 11.1017 30.6777Z" fill="#404040"/>
<path d="M11.1017 21.2712C11.1017 20.1695 10.1695 19.2373 9.06783 19.2373C7.96613 19.2373 7.03394 20.1695 7.03394 21.2712C7.03394 22.3729 7.96613 23.3051 9.06783 23.3051C10.1695 23.3898 11.1017 22.4576 11.1017 21.2712Z" fill="#404040"/>
<path d="M11.1017 11.9492C11.1017 10.8475 10.1695 9.91528 9.06783 9.91528C7.96613 9.91528 7.03394 10.8475 7.03394 11.9492C7.03394 13.0509 7.96613 13.9831 9.06783 13.9831C10.1695 13.9831 11.1017 13.0509 11.1017 11.9492Z" fill="#404040"/>
<path d="M45.8474 96.271C45.8474 97.3726 46.7796 98.3048 47.8813 98.3048C48.983 98.3048 49.9152 97.3726 49.9152 96.271C49.9152 95.1693 48.983 94.2371 47.8813 94.2371C46.7796 94.2371 45.8474 95.0845 45.8474 96.271Z" fill="#404040"/>
<path d="M49.9999 86.8642C49.9999 85.7625 49.0677 84.8303 47.966 84.8303C46.8643 84.8303 45.9321 85.7625 45.9321 86.8642C45.9321 87.9659 46.8643 88.8981 47.966 88.8981C49.0677 88.8981 49.9999 88.0507 49.9999 86.8642Z" fill="#404040"/>
<path d="M49.9999 77.5422C49.9999 76.4405 49.0677 75.5083 47.966 75.5083C46.8643 75.5083 45.9321 76.4405 45.9321 77.5422C45.9321 78.6439 46.8643 79.5761 47.966 79.5761C49.0677 79.5761 49.9999 78.6439 49.9999 77.5422Z" fill="#404040"/>
<path d="M49.9999 68.1355C49.9999 67.0338 49.0677 66.1016 47.966 66.1016C46.8643 66.1016 45.9321 67.0338 45.9321 68.1355C45.9321 69.2371 46.8643 70.1693 47.966 70.1693C49.0677 70.1693 49.9999 69.3219 49.9999 68.1355Z" fill="#404040"/>
<path d="M49.9999 58.8134C49.9999 57.7117 49.0677 56.7795 47.966 56.7795C46.8643 56.7795 45.9321 57.7117 45.9321 58.8134C45.9321 59.9151 46.8643 60.8473 47.966 60.8473C49.0677 60.8473 49.9999 59.9151 49.9999 58.8134Z" fill="#404040"/>
<path d="M49.9999 49.4067C49.9999 48.305 49.0677 47.3728 47.966 47.3728C46.8643 47.3728 45.9321 48.305 45.9321 49.4067C45.9321 50.5084 46.8643 51.4406 47.966 51.4406C49.0677 51.4406 49.9999 50.5084 49.9999 49.4067Z" fill="#404040"/>
<path d="M49.9999 39.9997C49.9999 38.898 49.0677 37.9658 47.966 37.9658C46.8643 37.9658 45.9321 38.898 45.9321 39.9997C45.9321 41.1014 46.8643 42.0336 47.966 42.0336C49.0677 42.1184 49.9999 41.1862 49.9999 39.9997Z" fill="#404040"/>
<path d="M40.2541 96.271C40.2541 95.1693 39.3219 94.2371 38.2202 94.2371C37.1185 94.2371 36.1863 95.1693 36.1863 96.271C36.1863 97.3726 37.1185 98.3048 38.2202 98.3048C39.3219 98.3048 40.2541 97.3726 40.2541 96.271Z" fill="#404040"/>
<path d="M40.2541 86.8642C40.2541 85.7625 39.3219 84.8303 38.2202 84.8303C37.1185 84.8303 36.1863 85.7625 36.1863 86.8642C36.1863 87.9659 37.1185 88.8981 38.2202 88.8981C39.3219 88.8981 40.2541 88.0507 40.2541 86.8642Z" fill="#404040"/>
<path d="M40.2541 77.5422C40.2541 76.4405 39.3219 75.5083 38.2202 75.5083C37.1185 75.5083 36.1863 76.4405 36.1863 77.5422C36.1863 78.6439 37.1185 79.5761 38.2202 79.5761C39.3219 79.5761 40.2541 78.6439 40.2541 77.5422Z" fill="#404040"/>
<path d="M40.2541 68.1355C40.2541 67.0338 39.3219 66.1016 38.2202 66.1016C37.1185 66.1016 36.1863 67.0338 36.1863 68.1355C36.1863 69.2371 37.1185 70.1693 38.2202 70.1693C39.3219 70.1693 40.2541 69.3219 40.2541 68.1355Z" fill="#404040"/>
<path d="M40.2541 58.8134C40.2541 57.7117 39.3219 56.7795 38.2202 56.7795C37.1185 56.7795 36.1863 57.7117 36.1863 58.8134C36.1863 59.9151 37.1185 60.8473 38.2202 60.8473C39.3219 60.8473 40.2541 59.9151 40.2541 58.8134Z" fill="#404040"/>
<path d="M40.2541 49.4067C40.2541 48.305 39.3219 47.3728 38.2202 47.3728C37.1185 47.3728 36.1863 48.305 36.1863 49.4067C36.1863 50.5084 37.1185 51.4406 38.2202 51.4406C39.3219 51.4406 40.2541 50.5084 40.2541 49.4067Z" fill="#404040"/>
<path d="M40.2541 39.9997C40.2541 38.898 39.3219 37.9658 38.2202 37.9658C37.1185 37.9658 36.1863 38.898 36.1863 39.9997C36.1863 41.1014 37.1185 42.0336 38.2202 42.0336C39.3219 42.0336 40.2541 41.1862 40.2541 39.9997Z" fill="#404040"/>
<path d="M30.5085 96.271C30.5085 95.1693 29.5763 94.2371 28.4746 94.2371C27.3729 94.2371 26.4407 95.1693 26.4407 96.271C26.4407 97.3726 27.3729 98.3048 28.4746 98.3048C29.5763 98.3048 30.5085 97.3726 30.5085 96.271Z" fill="#404040"/>
<path d="M30.5085 86.8642C30.5085 85.7625 29.5763 84.8303 28.4746 84.8303C27.3729 84.8303 26.4407 85.7625 26.4407 86.8642C26.4407 87.9659 27.3729 88.8981 28.4746 88.8981C29.5763 88.8981 30.5085 88.0507 30.5085 86.8642Z" fill="#404040"/>
<path d="M30.5085 77.5422C30.5085 76.4405 29.5763 75.5083 28.4746 75.5083C27.3729 75.5083 26.4407 76.4405 26.4407 77.5422C26.4407 78.6439 27.3729 79.5761 28.4746 79.5761C29.5763 79.5761 30.5085 78.6439 30.5085 77.5422Z" fill="#404040"/>
<path d="M30.5085 68.1355C30.5085 67.0338 29.5763 66.1016 28.4746 66.1016C27.3729 66.1016 26.4407 67.0338 26.4407 68.1355C26.4407 69.2371 27.3729 70.1693 28.4746 70.1693C29.5763 70.1693 30.5085 69.3219 30.5085 68.1355Z" fill="#404040"/>
<path d="M28.4746 60.8473C29.5979 60.8473 30.5085 59.9367 30.5085 58.8134C30.5085 57.6901 29.5979 56.7795 28.4746 56.7795C27.3513 56.7795 26.4407 57.6901 26.4407 58.8134C26.4407 59.9367 27.3513 60.8473 28.4746 60.8473Z" fill="#404040"/>
<path d="M30.5085 49.4067C30.5085 48.305 29.5763 47.3728 28.4746 47.3728C27.3729 47.3728 26.4407 48.305 26.4407 49.4067C26.4407 50.5084 27.3729 51.4406 28.4746 51.4406C29.5763 51.4406 30.5085 50.5084 30.5085 49.4067Z" fill="#404040"/>
<path d="M30.5085 39.9997C30.5085 38.898 29.5763 37.9658 28.4746 37.9658C27.3729 37.9658 26.4407 38.898 26.4407 39.9997C26.4407 41.1014 27.3729 42.0336 28.4746 42.0336C29.5763 42.1184 30.5085 41.1862 30.5085 39.9997Z" fill="#404040"/>
<path d="M20.8476 96.271C20.8476 95.1693 19.9154 94.2371 18.8137 94.2371C17.712 94.2371 16.7798 95.1693 16.7798 96.271C16.7798 97.3726 17.712 98.3048 18.8137 98.3048C19.9154 98.3048 20.8476 97.3726 20.8476 96.271Z" fill="#404040"/>
<path d="M20.8476 86.8642C20.8476 85.7625 19.9154 84.8303 18.8137 84.8303C17.712 84.8303 16.7798 85.7625 16.7798 86.8642C16.7798 87.9659 17.712 88.8981 18.8137 88.8981C19.9154 88.8981 20.8476 88.0507 20.8476 86.8642Z" fill="#404040"/>
<path d="M20.8476 77.5422C20.8476 76.4405 19.9154 75.5083 18.8137 75.5083C17.712 75.5083 16.7798 76.4405 16.7798 77.5422C16.7798 78.6439 17.712 79.5761 18.8137 79.5761C19.9154 79.5761 20.8476 78.6439 20.8476 77.5422Z" fill="#404040"/>
<path d="M20.8476 68.1355C20.8476 67.0338 19.9154 66.1016 18.8137 66.1016C17.712 66.1016 16.7798 67.0338 16.7798 68.1355C16.7798 69.2371 17.712 70.1693 18.8137 70.1693C19.9154 70.1693 20.8476 69.3219 20.8476 68.1355Z" fill="#404040"/>
<path d="M20.8476 58.8134C20.8476 57.7117 19.9154 56.7795 18.8137 56.7795C17.712 56.7795 16.7798 57.7117 16.7798 58.8134C16.7798 59.9151 17.712 60.8473 18.8137 60.8473C19.9154 60.8473 20.8476 59.9151 20.8476 58.8134Z" fill="#404040"/>
<path d="M20.8476 49.4067C20.8476 48.305 19.9154 47.3728 18.8137 47.3728C17.712 47.3728 16.7798 48.305 16.7798 49.4067C16.7798 50.5084 17.712 51.4406 18.8137 51.4406C19.9154 51.4406 20.8476 50.5084 20.8476 49.4067Z" fill="#404040"/>
<path d="M20.8476 39.9997C20.8476 38.898 19.9154 37.9658 18.8137 37.9658C17.712 37.9658 16.7798 38.898 16.7798 39.9997C16.7798 41.1014 17.712 42.0336 18.8137 42.0336C19.9154 42.0336 20.8476 41.1862 20.8476 39.9997Z" fill="#404040"/>
<path d="M11.1017 96.271C11.1017 95.1693 10.1695 94.2371 9.06783 94.2371C7.96613 94.2371 7.03394 95.1693 7.03394 96.271C7.03394 97.3726 7.96613 98.3048 9.06783 98.3048C10.1695 98.3048 11.1017 97.3726 11.1017 96.271Z" fill="#404040"/>
<path d="M11.1017 86.8642C11.1017 85.7625 10.1695 84.8303 9.06783 84.8303C7.96613 84.8303 7.03394 85.7625 7.03394 86.8642C7.03394 87.9659 7.96613 88.8981 9.06783 88.8981C10.1695 88.8981 11.1017 88.0507 11.1017 86.8642Z" fill="#404040"/>
<path d="M11.1017 77.5422C11.1017 76.4405 10.1695 75.5083 9.06783 75.5083C7.96613 75.5083 7.03394 76.4405 7.03394 77.5422C7.03394 78.6439 7.96613 79.5761 9.06783 79.5761C10.1695 79.5761 11.1017 78.6439 11.1017 77.5422Z" fill="#404040"/>
<path d="M11.1017 68.1355C11.1017 67.0338 10.1695 66.1016 9.06783 66.1016C7.96613 66.1016 7.03394 67.0338 7.03394 68.1355C7.03394 69.2371 7.96613 70.1693 9.06783 70.1693C10.1695 70.1693 11.1017 69.3219 11.1017 68.1355Z" fill="#404040"/>
<path d="M11.1017 58.8134C11.1017 57.7117 10.1695 56.7795 9.06783 56.7795C7.96613 56.7795 7.03394 57.7117 7.03394 58.8134C7.03394 59.9151 7.96613 60.8473 9.06783 60.8473C10.1695 60.8473 11.1017 59.9151 11.1017 58.8134Z" fill="#404040"/>
<path d="M11.1017 49.4067C11.1017 48.305 10.1695 47.3728 9.06783 47.3728C7.96613 47.3728 7.03394 48.305 7.03394 49.4067C7.03394 50.5084 7.96613 51.4406 9.06783 51.4406C10.1695 51.4406 11.1017 50.5084 11.1017 49.4067Z" fill="#404040"/>
<path d="M11.1017 39.9997C11.1017 38.898 10.1695 37.9658 9.06783 37.9658C7.96613 37.9658 7.03394 38.898 7.03394 39.9997C7.03394 41.1014 7.96613 42.0336 9.06783 42.0336C10.1695 42.1184 11.1017 41.1862 11.1017 39.9997Z" fill="#404040"/>
<path d="M42.8813 20.7627C42.8813 19.661 41.9491 18.7288 40.8474 18.7288C39.7457 18.7288 38.8135 19.661 38.8135 20.7627C38.8135 21.8643 39.7457 22.7965 40.8474 22.7965C41.9491 22.7965 42.8813 21.8643 42.8813 20.7627Z" fill="#FBFBFB"/>
<path d="M42.8813 11.3559C42.8813 10.2542 41.9491 9.32202 40.8474 9.32202C39.7457 9.32202 38.8135 10.2542 38.8135 11.3559C38.8135 12.4576 39.7457 13.3898 40.8474 13.3898C41.9491 13.3898 42.8813 12.5424 42.8813 11.3559Z" fill="#FBFBFB"/>
<path d="M42.8813 2.03389C42.8813 0.932197 41.9491 0 40.8474 0C39.7457 0 38.8135 0.932197 38.8135 2.03389C38.8135 3.13558 39.7457 4.06778 40.8474 4.06778C41.9491 4.06778 42.8813 3.13558 42.8813 2.03389Z" fill="#FBFBFB"/>
<path d="M33.1357 20.7627C33.1357 19.661 32.2035 18.7288 31.1018 18.7288C30.0001 18.7288 29.0679 19.661 29.0679 20.7627C29.0679 21.8643 30.0001 22.7965 31.1018 22.7965C32.2035 22.7965 33.1357 21.8643 33.1357 20.7627Z" fill="#FBFBFB"/>
<path d="M33.1357 11.3559C33.1357 10.2542 32.2035 9.32202 31.1018 9.32202C30.0001 9.32202 29.0679 10.2542 29.0679 11.3559C29.0679 12.4576 30.0001 13.3898 31.1018 13.3898C32.2035 13.3898 33.1357 12.5424 33.1357 11.3559Z" fill="#FBFBFB"/>
<path d="M33.1357 2.03389C33.1357 0.932197 32.2035 0 31.1018 0C30.0001 0 29.0679 0.932197 29.0679 2.03389C29.0679 3.13558 30.0001 4.06778 31.1018 4.06778C32.2035 4.06778 33.1357 3.13558 33.1357 2.03389Z" fill="#FBFBFB"/>
<path d="M23.4745 20.7627C23.4745 19.661 22.5423 18.7288 21.4406 18.7288C20.3389 18.7288 19.4067 19.661 19.4067 20.7627C19.4067 21.8643 20.3389 22.7965 21.4406 22.7965C22.5423 22.7965 23.4745 21.8643 23.4745 20.7627Z" fill="#FBFBFB"/>
<path d="M23.4745 11.3559C23.4745 10.2542 22.5423 9.32202 21.4406 9.32202C20.3389 9.32202 19.4067 10.2542 19.4067 11.3559C19.4067 12.4576 20.3389 13.3898 21.4406 13.3898C22.5423 13.3898 23.4745 12.5424 23.4745 11.3559Z" fill="#FBFBFB"/>
<path d="M23.4745 2.03389C23.4745 0.932197 22.5423 0 21.4406 0C20.3389 0 19.4067 0.932197 19.4067 2.03389C19.4067 3.13558 20.3389 4.06778 21.4406 4.06778C22.5423 4.06778 23.4745 3.13558 23.4745 2.03389Z" fill="#FBFBFB"/>
<path d="M13.7287 20.7627C13.7287 19.661 12.7965 18.7288 11.6948 18.7288C10.5931 18.7288 9.66089 19.661 9.66089 20.7627C9.66089 21.8643 10.5931 22.7965 11.6948 22.7965C12.7965 22.7965 13.7287 21.8643 13.7287 20.7627Z" fill="#FBFBFB"/>
<path d="M13.7287 11.3559C13.7287 10.2542 12.7965 9.32202 11.6948 9.32202C10.5931 9.32202 9.66089 10.2542 9.66089 11.3559C9.66089 12.4576 10.5931 13.3898 11.6948 13.3898C12.7965 13.3898 13.7287 12.5424 13.7287 11.3559Z" fill="#FBFBFB"/>
<path d="M13.7287 2.03389C13.7287 0.932197 12.7965 0 11.6948 0C10.5931 0 9.66089 0.932197 9.66089 2.03389C9.66089 3.13558 10.5931 4.06778 11.6948 4.06778C12.7965 4.06778 13.7287 3.13558 13.7287 2.03389Z" fill="#FBFBFB"/>
<path d="M4.06778 20.7627C4.06778 19.661 3.13558 18.7288 2.03389 18.7288C0.932197 18.7288 0 19.661 0 20.7627C0 21.8643 0.932197 22.7965 2.03389 22.7965C3.13558 22.7965 4.06778 21.8643 4.06778 20.7627Z" fill="#FBFBFB"/>
<path d="M4.06778 11.3559C4.06778 10.2542 3.13558 9.32202 2.03389 9.32202C0.932197 9.32202 0 10.2542 0 11.3559C0 12.4576 0.932197 13.3898 2.03389 13.3898C3.13558 13.3898 4.06778 12.5424 4.06778 11.3559Z" fill="#FBFBFB"/>
<path d="M4.06778 2.03389C4.06778 0.932197 3.13558 0 2.03389 0C0.932197 0 0 0.932197 0 2.03389C0 3.13558 0.932197 4.06778 2.03389 4.06778C3.13558 4.06778 4.06778 3.13558 4.06778 2.03389Z" fill="#FBFBFB"/>
<path d="M38.7288 86.3559C38.7288 87.4576 39.661 88.3898 40.7627 88.3898C41.8643 88.3898 42.7966 87.4576 42.7966 86.3559C42.7966 85.2542 41.8643 84.322 40.7627 84.322C39.661 84.322 38.7288 85.1695 38.7288 86.3559Z" fill="#FBFBFB"/>
<path d="M40.8474 78.9828C41.9707 78.9828 42.8813 78.0722 42.8813 76.9489C42.8813 75.8256 41.9707 74.915 40.8474 74.915C39.7241 74.915 38.8135 75.8256 38.8135 76.9489C38.8135 78.0722 39.7241 78.9828 40.8474 78.9828Z" fill="#FBFBFB"/>
<path d="M42.8813 67.6269C42.8813 66.5252 41.9491 65.593 40.8474 65.593C39.7457 65.593 38.8135 66.5252 38.8135 67.6269C38.8135 68.7286 39.7457 69.6608 40.8474 69.6608C41.9491 69.6608 42.8813 68.7286 42.8813 67.6269Z" fill="#FBFBFB"/>
<path d="M40.8474 60.2543C41.9707 60.2543 42.8813 59.3437 42.8813 58.2204C42.8813 57.0972 41.9707 56.1865 40.8474 56.1865C39.7241 56.1865 38.8135 57.0972 38.8135 58.2204C38.8135 59.3437 39.7241 60.2543 40.8474 60.2543Z" fill="#FBFBFB"/>
<path d="M40.8474 50.8473C41.9707 50.8473 42.8813 49.9367 42.8813 48.8134C42.8813 47.6901 41.9707 46.7795 40.8474 46.7795C39.7241 46.7795 38.8135 47.6901 38.8135 48.8134C38.8135 49.9367 39.7241 50.8473 40.8474 50.8473Z" fill="#FBFBFB"/>
<path d="M42.8813 39.4914C42.8813 38.3897 41.9491 37.4575 40.8474 37.4575C39.7457 37.4575 38.8135 38.3897 38.8135 39.4914C38.8135 40.5931 39.7457 41.5253 40.8474 41.5253C41.9491 41.5253 42.8813 40.5931 42.8813 39.4914Z" fill="#FBFBFB"/>
<path d="M40.8474 32.1186C41.9707 32.1186 42.8813 31.208 42.8813 30.0847C42.8813 28.9614 41.9707 28.0508 40.8474 28.0508C39.7241 28.0508 38.8135 28.9614 38.8135 30.0847C38.8135 31.208 39.7241 32.1186 40.8474 32.1186Z" fill="#FBFBFB"/>
<path d="M33.1357 86.3559C33.1357 85.2542 32.2035 84.322 31.1018 84.322C30.0001 84.322 29.0679 85.2542 29.0679 86.3559C29.0679 87.4576 30.0001 88.3898 31.1018 88.3898C32.2035 88.3898 33.1357 87.4576 33.1357 86.3559Z" fill="#FBFBFB"/>
<path d="M31.1018 78.9828C32.2251 78.9828 33.1357 78.0722 33.1357 76.9489C33.1357 75.8256 32.2251 74.915 31.1018 74.915C29.9785 74.915 29.0679 75.8256 29.0679 76.9489C29.0679 78.0722 29.9785 78.9828 31.1018 78.9828Z" fill="#FBFBFB"/>
<path d="M33.1357 67.6269C33.1357 66.5252 32.2035 65.593 31.1018 65.593C30.0001 65.593 29.0679 66.5252 29.0679 67.6269C29.0679 68.7286 30.0001 69.6608 31.1018 69.6608C32.2035 69.6608 33.1357 68.7286 33.1357 67.6269Z" fill="#FBFBFB"/>
<path d="M31.1018 60.2543C32.2251 60.2543 33.1357 59.3437 33.1357 58.2204C33.1357 57.0972 32.2251 56.1865 31.1018 56.1865C29.9785 56.1865 29.0679 57.0972 29.0679 58.2204C29.0679 59.3437 29.9785 60.2543 31.1018 60.2543Z" fill="#FBFBFB"/>
<path d="M31.1018 50.8473C32.2251 50.8473 33.1357 49.9367 33.1357 48.8134C33.1357 47.6901 32.2251 46.7795 31.1018 46.7795C29.9785 46.7795 29.0679 47.6901 29.0679 48.8134C29.0679 49.9367 29.9785 50.8473 31.1018 50.8473Z" fill="#FBFBFB"/>
<path d="M33.1357 39.4914C33.1357 38.3897 32.2035 37.4575 31.1018 37.4575C30.0001 37.4575 29.0679 38.3897 29.0679 39.4914C29.0679 40.5931 30.0001 41.5253 31.1018 41.5253C32.2035 41.5253 33.1357 40.5931 33.1357 39.4914Z" fill="#FBFBFB"/>
<path d="M31.1018 32.1186C32.2251 32.1186 33.1357 31.208 33.1357 30.0847C33.1357 28.9614 32.2251 28.0508 31.1018 28.0508C29.9785 28.0508 29.0679 28.9614 29.0679 30.0847C29.0679 31.208 29.9785 32.1186 31.1018 32.1186Z" fill="#FBFBFB"/>
<path d="M23.4745 86.3559C23.4745 85.2542 22.5423 84.322 21.4406 84.322C20.3389 84.322 19.4067 85.2542 19.4067 86.3559C19.4067 87.4576 20.3389 88.3898 21.4406 88.3898C22.5423 88.3898 23.4745 87.4576 23.4745 86.3559Z" fill="#FBFBFB"/>
<path d="M23.4745 76.9489C23.4745 75.8472 22.5423 74.915 21.4406 74.915C20.3389 74.915 19.4067 75.8472 19.4067 76.9489C19.4067 78.0506 20.3389 78.9828 21.4406 78.9828C22.5423 78.9828 23.4745 78.1354 23.4745 76.9489Z" fill="#FBFBFB"/>
<path d="M23.4745 67.6269C23.4745 66.5252 22.5423 65.593 21.4406 65.593C20.3389 65.593 19.4067 66.5252 19.4067 67.6269C19.4067 68.7286 20.3389 69.6608 21.4406 69.6608C22.5423 69.6608 23.4745 68.7286 23.4745 67.6269Z" fill="#FBFBFB"/>
<path d="M23.4745 58.2204C23.4745 57.1187 22.5423 56.1865 21.4406 56.1865C20.3389 56.1865 19.4067 57.1187 19.4067 58.2204C19.4067 59.3221 20.3389 60.2543 21.4406 60.2543C22.5423 60.2543 23.4745 59.3221 23.4745 58.2204Z" fill="#FBFBFB"/>
<path d="M23.4745 48.8134C23.4745 47.7117 22.5423 46.7795 21.4406 46.7795C20.3389 46.7795 19.4067 47.7117 19.4067 48.8134C19.4067 49.9151 20.3389 50.8473 21.4406 50.8473C22.5423 50.9321 23.4745 49.9999 23.4745 48.8134Z" fill="#FBFBFB"/>
<path d="M23.4745 39.4914C23.4745 38.3897 22.5423 37.4575 21.4406 37.4575C20.3389 37.4575 19.4067 38.3897 19.4067 39.4914C19.4067 40.5931 20.3389 41.5253 21.4406 41.5253C22.5423 41.5253 23.4745 40.5931 23.4745 39.4914Z" fill="#FBFBFB"/>
<path d="M23.4745 30.0847C23.4745 28.983 22.5423 28.0508 21.4406 28.0508C20.3389 28.0508 19.4067 28.983 19.4067 30.0847C19.4067 31.1864 20.3389 32.1186 21.4406 32.1186C22.5423 32.2033 23.4745 31.2711 23.4745 30.0847Z" fill="#FBFBFB"/>
<path d="M13.7287 86.3559C13.7287 85.2542 12.7965 84.322 11.6948 84.322C10.5931 84.322 9.66089 85.2542 9.66089 86.3559C9.66089 87.4576 10.5931 88.3898 11.6948 88.3898C12.7965 88.3898 13.7287 87.4576 13.7287 86.3559Z" fill="#FBFBFB"/>
<path d="M13.7287 76.9489C13.7287 75.8472 12.7965 74.915 11.6948 74.915C10.5931 74.915 9.66089 75.8472 9.66089 76.9489C9.66089 78.0506 10.5931 78.9828 11.6948 78.9828C12.7965 78.9828 13.7287 78.1354 13.7287 76.9489Z" fill="#FBFBFB"/>
<path d="M13.7287 67.6269C13.7287 66.5252 12.7965 65.593 11.6948 65.593C10.5931 65.593 9.66089 66.5252 9.66089 67.6269C9.66089 68.7286 10.5931 69.6608 11.6948 69.6608C12.7965 69.6608 13.7287 68.7286 13.7287 67.6269Z" fill="#FBFBFB"/>
<path d="M13.7287 58.2204C13.7287 57.1187 12.7965 56.1865 11.6948 56.1865C10.5931 56.1865 9.66089 57.1187 9.66089 58.2204C9.66089 59.3221 10.5931 60.2543 11.6948 60.2543C12.7965 60.2543 13.7287 59.3221 13.7287 58.2204Z" fill="#FBFBFB"/>
<path d="M13.7287 48.8134C13.7287 47.7117 12.7965 46.7795 11.6948 46.7795C10.5931 46.7795 9.66089 47.7117 9.66089 48.8134C9.66089 49.9151 10.5931 50.8473 11.6948 50.8473C12.7965 50.9321 13.7287 49.9999 13.7287 48.8134Z" fill="#FBFBFB"/>
<path d="M13.7287 39.4914C13.7287 38.3897 12.7965 37.4575 11.6948 37.4575C10.5931 37.4575 9.66089 38.3897 9.66089 39.4914C9.66089 40.5931 10.5931 41.5253 11.6948 41.5253C12.7965 41.5253 13.7287 40.5931 13.7287 39.4914Z" fill="#FBFBFB"/>
<path d="M13.7287 30.0847C13.7287 28.983 12.7965 28.0508 11.6948 28.0508C10.5931 28.0508 9.66089 28.983 9.66089 30.0847C9.66089 31.1864 10.5931 32.1186 11.6948 32.1186C12.7965 32.2033 13.7287 31.2711 13.7287 30.0847Z" fill="#FBFBFB"/>
<path d="M4.06778 86.3559C4.06778 85.2542 3.13558 84.322 2.03389 84.322C0.932197 84.322 0 85.2542 0 86.3559C0 87.4576 0.932197 88.3898 2.03389 88.3898C3.13558 88.3898 4.06778 87.4576 4.06778 86.3559Z" fill="#FBFBFB"/>
<path d="M4.06778 76.9489C4.06778 75.8472 3.13558 74.915 2.03389 74.915C0.932197 74.915 0 75.8472 0 76.9489C0 78.0506 0.932197 78.9828 2.03389 78.9828C3.13558 78.9828 4.06778 78.1354 4.06778 76.9489Z" fill="#FBFBFB"/>
<path d="M4.06778 67.6269C4.06778 66.5252 3.13558 65.593 2.03389 65.593C0.932197 65.593 0 66.5252 0 67.6269C0 68.7286 0.932197 69.6608 2.03389 69.6608C3.13558 69.6608 4.06778 68.7286 4.06778 67.6269Z" fill="#FBFBFB"/>
<path d="M4.06778 58.2204C4.06778 57.1187 3.13558 56.1865 2.03389 56.1865C0.932197 56.1865 0 57.1187 0 58.2204C0 59.3221 0.932197 60.2543 2.03389 60.2543C3.13558 60.2543 4.06778 59.3221 4.06778 58.2204Z" fill="#FBFBFB"/>
<path d="M4.06778 48.8134C4.06778 47.7117 3.13558 46.7795 2.03389 46.7795C0.932197 46.7795 0 47.7117 0 48.8134C0 49.9151 0.932197 50.8473 2.03389 50.8473C3.13558 50.8473 4.06778 49.9999 4.06778 48.8134Z" fill="#FBFBFB"/>
<path d="M4.06778 39.4914C4.06778 38.3897 3.13558 37.4575 2.03389 37.4575C0.932197 37.4575 0 38.3897 0 39.4914C0 40.5931 0.932197 41.5253 2.03389 41.5253C3.13558 41.5253 4.06778 40.5931 4.06778 39.4914Z" fill="#FBFBFB"/>
<path d="M4.06778 30.0847C4.06778 28.983 3.13558 28.0508 2.03389 28.0508C0.932197 28.0508 0 28.983 0 30.0847C0 31.1864 0.932197 32.1186 2.03389 32.1186C3.13558 32.1186 4.06778 31.2711 4.06778 30.0847Z" fill="#FBFBFB"/>
</svg>
