<svg width="51" height="27" viewBox="0 0 51 27" fill="none" xmlns="http://www.w3.org/2000/svg">
<path d="M3.92017 22.1901C3.92017 22.0738 3.95893 21.9963 3.99769 21.9188C4.15272 21.6087 4.54032 21.5312 4.81164 21.6862L11.0132 25.0971L17.5248 21.5312L24.0364 25.0583L30.548 21.4924L37.0597 25.0583L43.5713 21.4924L50.3542 25.2134C50.6643 25.3684 50.7418 25.756 50.5868 26.0273C50.4317 26.3374 50.0441 26.4149 49.7728 26.2599L43.5713 22.849L37.0597 26.4149L30.548 22.849L24.0364 26.4149L17.5248 22.849L11.0132 26.4149L4.23024 22.7327C3.99769 22.6165 3.92017 22.4227 3.92017 22.1901Z" fill="#404040"/>
<path d="M3.92017 16.8413C3.92017 16.725 3.95893 16.6475 3.99769 16.57C4.15272 16.2599 4.54032 16.1824 4.81164 16.3374L11.0132 19.7483L17.5248 16.1824L24.0364 19.7483L30.548 16.1824L37.0597 19.7483L43.5713 16.1824L50.3542 19.9033C50.6643 20.0583 50.7418 20.4459 50.5868 20.7173C50.4317 21.0273 50.0441 21.1048 49.7728 20.9498L43.5713 17.539L37.0597 21.1048L30.548 17.539L24.0364 21.1048L17.5248 17.539L11.0132 21.1048L4.23024 17.3839C3.99769 17.2676 3.92017 17.0738 3.92017 16.8413Z" fill="#404040"/>
<path d="M3.92017 11.4922C3.92017 11.3759 3.95893 11.2984 3.99769 11.2208C4.15272 10.9108 4.54032 10.8332 4.81164 10.9883L11.0132 14.3991L17.5248 10.8333L24.0364 14.3991L30.548 10.8333L37.0597 14.3991L43.5713 10.8333L50.3542 14.5542C50.6643 14.7092 50.7418 15.0968 50.5868 15.3681C50.4317 15.6782 50.0441 15.7557 49.7728 15.6007L43.5713 12.1898L37.0597 15.7557L30.548 12.1898L24.0364 15.7557L17.5248 12.1898L11.0132 15.7557L4.23024 12.0348C3.99769 11.9185 3.92017 11.7247 3.92017 11.4922Z" fill="#404040"/>
<path d="M3.92017 6.14353C3.92017 6.02725 3.95893 5.94973 3.99769 5.87222C4.15272 5.56214 4.54032 5.48462 4.81164 5.63966L11.0132 9.05051L17.5248 5.48462L24.0364 9.05051L30.548 5.48462L37.0597 9.05051L43.5713 5.48462L50.3542 9.20554C50.6643 9.36058 50.7418 9.74818 50.5868 10.0195C50.4317 10.3296 50.0441 10.4071 49.7728 10.2521L43.5713 6.84121L37.0597 10.4071L30.548 6.84121L24.0364 10.4071L17.5248 6.84121L11.0132 10.4071L4.23024 6.68617C3.99769 6.56989 3.92017 6.37609 3.92017 6.14353Z" fill="#404040"/>
<path d="M0.664062 17.6553C0.664062 17.539 0.702822 17.4615 0.741582 17.3839C0.896621 17.0739 1.28422 16.9963 1.55553 17.1514L7.75708 20.5622L14.2687 16.9963L20.7803 20.5622L27.2919 16.9963L33.8036 20.5622L40.3152 16.9963L47.0981 20.7173C47.4082 20.8723 47.4857 21.2599 47.3307 21.5312C47.1756 21.8413 46.788 21.9188 46.5167 21.7638L40.3152 18.3529L33.8036 21.9188L27.2919 18.3529L20.7803 21.9188L14.2687 18.3529L7.75708 21.9188L0.974139 18.1979C0.780341 18.0816 0.664062 17.8491 0.664062 17.6553Z" fill="#FBFBFB"/>
<path d="M0.664062 12.3064C0.664062 12.1901 0.702822 12.1126 0.741582 12.0351C0.896621 11.725 1.28422 11.6475 1.55553 11.8025L7.75708 15.2133L14.2687 11.6475L20.7803 15.2133L27.2919 11.6475L33.8036 15.2133L40.3152 11.6475L47.0981 15.3684C47.4082 15.5234 47.4857 15.911 47.3307 16.1823C47.1756 16.4924 46.788 16.5699 46.5167 16.4149L40.3152 13.004L33.8036 16.5699L27.2919 13.004L20.7803 16.5699L14.2687 13.004L7.75708 16.5699L0.974139 12.849C0.780341 12.7327 0.664062 12.5389 0.664062 12.3064Z" fill="#FBFBFB"/>
<path d="M0.664062 6.95726C0.664062 6.84098 0.702822 6.76346 0.741582 6.68594C0.896621 6.37586 1.28422 6.29834 1.55553 6.45338L7.75708 9.86423L14.2687 6.29834L20.7803 9.86423L27.2919 6.29834L33.8036 9.86423L40.3152 6.29834L47.0981 10.0193C47.4082 10.1743 47.4857 10.5619 47.3307 10.8332C47.1756 11.1433 46.788 11.2208 46.5167 11.0658L40.3152 7.65493L33.8036 11.2208L27.2919 7.65493L20.7803 11.2208L14.2687 7.65493L7.75708 11.2208L0.974139 7.49989C0.780341 7.38361 0.664062 7.18981 0.664062 6.95726Z" fill="#FBFBFB"/>
<path d="M0.664062 1.60862C0.664062 1.49234 0.702822 1.41482 0.741582 1.3373C0.896621 1.02723 1.28422 0.949705 1.55553 1.10474L7.75708 4.51559L14.2687 0.949707L20.7803 4.51559L27.2919 0.949707L33.8036 4.51559L40.3152 0.949707L47.0981 4.67063C47.4082 4.82567 47.4857 5.21327 47.3307 5.48458C47.1756 5.79466 46.788 5.87218 46.5167 5.71714L40.3152 2.30629L33.8036 5.87218L27.2919 2.30629L20.7803 5.87218L14.2687 2.30629L7.75708 5.87218L0.974139 2.15126C0.780341 2.03498 0.664062 1.84118 0.664062 1.60862Z" fill="#FBFBFB"/>
</svg>
